<?xml version="1.0" encoding="UTF-8" standalone="no"?>
<!-- Created with Inkscape (http://www.inkscape.org/) -->

<svg
   xmlns:dc="http://purl.org/dc/elements/1.1/"
   xmlns:cc="http://creativecommons.org/ns#"
   xmlns:rdf="http://www.w3.org/1999/02/22-rdf-syntax-ns#"
   xmlns:svg="http://www.w3.org/2000/svg"
   xmlns="http://www.w3.org/2000/svg"
   xmlns:sodipodi="http://sodipodi.sourceforge.net/DTD/sodipodi-0.dtd"
   xmlns:inkscape="http://www.inkscape.org/namespaces/inkscape"
   width="210mm"
   height="297mm"
   viewBox="0 0 210 297"
   version="1.1"
   id="svg7103"
   inkscape:version="0.92.3 (2405546, 2018-03-11)"
   sodipodi:docname="fib-object.svg">
  <defs
     id="defs7097" />
  <sodipodi:namedview
     id="base"
     pagecolor="#ffffff"
     bordercolor="#666666"
     borderopacity="1.0"
     inkscape:pageopacity="0.0"
     inkscape:pageshadow="2"
     inkscape:zoom="1.979899"
     inkscape:cx="-552.67953"
     inkscape:cy="553.15823"
     inkscape:document-units="mm"
     inkscape:current-layer="layer1"
     showgrid="false"
     inkscape:window-width="1600"
     inkscape:window-height="877"
     inkscape:window-x="210"
     inkscape:window-y="1072"
     inkscape:window-maximized="1" />
  <metadata
     id="metadata7100">
    <rdf:RDF>
      <cc:Work
         rdf:about="">
        <dc:format>image/svg+xml</dc:format>
        <dc:type
           rdf:resource="http://purl.org/dc/dcmitype/StillImage" />
        <dc:title></dc:title>
      </cc:Work>
    </rdf:RDF>
  </metadata>
  <g
     inkscape:label="Layer 1"
     inkscape:groupmode="layer"
     id="layer1">
    <path
       id="path5141"
       transform="scale(0.26458333)"
       style="opacity:0.98999999;fill:#000005;fill-opacity:1;stroke:none;stroke-width:0.35543346;stroke-miterlimit:4;stroke-dasharray:none;stroke-opacity:0.98775509"
       d="m -546.29883,386.79688 -14.15039,1.15039 c -12.44364,1.01162 -26.72358,1.14818 -118.41601,1.14062 l -104.26758,-0.006 -0.49805,176.35352 c -0.27402,96.99511 -0.30852,176.63533 -0.0781,176.97851 0.24986,0.3724 48.84472,0.6228 120.52539,0.61524 l 120.10547,-0.0117 V 566.39062 389.76367 l -1.61133,-1.48437 z m -3.45508,8.25976 v 104.69531 104.69727 l -22.06445,-0.44727 c -12.1355,-0.24555 -25.7356,-0.42294 -30.22266,-0.39648 -4.48709,0.0269 -45.33952,0.20852 -90.7832,0.4043 l -82.625,0.35546 0.45117,-11.12304 c 1.46756,-36.28286 12.23613,-72.37557 29.86328,-100.08789 16.95723,-26.65924 41.48849,-48.99711 71.94532,-65.51172 32.32917,-17.52983 79.92155,-31.07608 113.23828,-32.23242 z m -201.81445,0.28906 c 15.29166,-0.0109 36.3491,0.005 59.48047,0.0527 8.50541,0.0155 16.14989,0.0357 23.01562,0.0508 59.51914,0.13909 60.5032,0.27376 56.27735,1.34375 -83.49562,21.14086 -140.24439,71.16044 -161.0293,141.93164 l -2.50781,8.53711 -0.18945,-75.78516 c -0.10356,-41.6815 -0.0731,-75.88907 0.0664,-76.01758 0.0697,-0.0641 9.59506,-0.10241 24.88672,-0.11328 z m -42.19336,61.34571 c -0.0765,0.0362 -0.15721,0.14048 -0.23633,0.27929 0.0511,-0.0478 0.12199,-0.11505 0.16407,-0.15625 -0.007,-0.003 -0.0145,-0.005 -0.0215,-0.008 -0.0348,-0.0144 0.0952,-0.0806 0.0937,-0.0664 z m -0.0723,0.12304 c 0.0124,0.005 0.0247,0.0105 0.0371,0.0156 0.0163,-0.031 0.0256,-0.0507 0.0352,-0.0703 v -0.0137 c -0.0201,0.0197 -0.0538,0.0503 -0.0723,0.0684 z m -0.26758,0.58985 c -0.005,0.0202 -0.0104,0.0404 -0.0156,0.0605 0.0111,-0.0222 0.0179,-0.0379 0.0293,-0.0605 -0.004,4.3e-4 -0.01,-4.8e-4 -0.0137,0 z m 262.59765,34.42382 0.002,0.38672 c 0.0964,-0.005 0.19864,-0.0127 0.29101,-0.0176 v -0.34961 c -0.0921,-0.006 -0.19507,-0.013 -0.29297,-0.0195 z m -73.875,118.44922 v 6.9336 6.93164 l -5.37695,0.004 c -2.9574,0.002 -8.63026,0.20072 -12.60742,0.44336 -8.33197,0.50831 -8.66079,0.21226 -5.41992,-4.88281 3.0418,-4.78205 10.34002,-8.30457 18.69531,-9.02344 z m -170.21093,0.19727 h 67.94336 l 67.94336,0.002 0.48046,45.61133 c 0.26397,25.08624 0.68862,53.17885 0.94336,62.42773 0.33052,12.00069 0.22587,16.94872 -0.36132,17.28321 -1.08118,0.61565 -19.98305,-0.70494 -29.40821,-2.05469 -30.50846,-4.36898 -54.76038,-15.25893 -73.10156,-32.82617 -13.01972,-12.47033 -22.0316,-27.17262 -27.66211,-45.13086 -3.54312,-11.30056 -6.13162,-26.68802 -6.55859,-38.99023 z m 143.51172,0.002 c 0.40781,0 0.74218,0.30596 0.74218,0.68164 0,0.37565 -0.33441,0.6836 -0.74218,0.6836 -0.40797,0 -0.74219,-0.30791 -0.74219,-0.6836 0,-0.37568 0.33426,-0.68164 0.74219,-0.68164 z m 33.14257,0 h 2.96485 c 4.31981,0 13.53957,2.33507 18.91992,4.79297 12.23282,5.58826 19.46281,13.43753 23.50781,25.52344 0.86393,2.5813 1.78414,6.81019 2.04492,9.39648 l 0.47461,4.70117 h -23.46875 -23.46875 v -11.8496 c 0,-6.51719 -0.21874,-16.50993 -0.48633,-22.20704 z m 39.54102,0 h 9.64062 v 9.22461 c 0,5.07364 -0.11935,9.22461 -0.26562,9.22461 -0.14619,0 -1.4726,-1.67753 -2.94922,-3.72656 -3.21823,-4.46566 -8.05465,-9.0265 -12.67773,-11.95703 -1.86403,-1.1816 -3.39063,-2.28696 -3.39063,-2.45703 0,-0.1697 4.33967,-0.3086 9.64258,-0.3086 z m -46.25195,20.04883 c 0.0566,0.0598 0.34506,4.79798 0.64062,10.5293 l 0.53711,10.41992 h -3.76367 c -5.17962,0 -11.55565,-2.34163 -14.99219,-5.50781 -3.51379,-3.23732 -4.85647,-5.58023 -6.16797,-10.75977 l -1.02148,-4.03515 12.33203,-0.37891 c 6.78274,-0.2075 12.37885,-0.32767 12.43555,-0.26758 z m -26.38868,17.19141 2.03125,2.04882 c 1.117,1.12743 2.98688,2.74253 4.15625,3.5879 l 2.12696,1.5371 h -4.17969 -4.17969 l 0.0234,-3.58593 z m -144.33203,10.67187 c 0.18463,0.17004 1.38468,3.06663 2.66602,6.43555 12.49693,32.85728 37.87732,56.60258 73.37109,68.64453 3.45676,1.17279 6.41435,2.25337 6.57422,2.40039 0.60374,0.55623 -10.26245,0.67373 -46.04883,0.49609 l -36.89843,-0.18359 v -39.05078 c -10e-6,-21.47777 0.15149,-38.91227 0.33593,-38.74219 z m 144.05078,2.65235 h 40.53907 40.54101 l -0.0527,1.8789 c -0.0287,1.03351 -0.66567,4.56111 -1.41602,7.83985 -5.67881,24.81399 -21.85374,45.32119 -44.51367,56.43164 -9.0771,4.45062 -23.57324,8.33203 -31.11914,8.33203 h -2.99805 l -0.002,-19.30469 c -7.9e-4,-10.61703 -0.22162,-27.37484 -0.49023,-37.24023 z m 82.47852,26.99023 0.043,24.25781 0.041,24.25782 h -24.8457 c -13.66522,0 -24.8457,-0.0473 -24.8457,-0.10743 0,-0.0599 2.921,-1.5632 6.49023,-3.33984 17.18669,-8.55481 31.57157,-22.69215 40.29688,-39.60156 z m 18.1543,61.95117 c -0.0631,0.18289 -0.0961,0.38396 -0.13477,0.58203 0.1324,-0.18958 0.22826,-0.38239 0.13477,-0.58203 z m -256.8086,2.62305 c -0.01,0.0159 -0.0187,0.0312 -0.0273,0.0449 0.005,0.068 0.005,0.13972 0.006,0.21094 0.0476,-0.0869 0.0997,-0.17011 0.14844,-0.25586 z m 0.74219,0.20898 c 0.0755,0.0709 0.14744,0.14599 0.22656,0.21289 0.0544,0.0461 -0.0615,-0.14056 -0.125,-0.17382 -0.0321,-0.0168 -0.0687,-0.0239 -0.10156,-0.0391 z" />
  </g>
</svg>
