<?xml version="1.0" encoding="UTF-8" standalone="no"?>
<!-- Created with Inkscape (http://www.inkscape.org/) -->

<svg
   xmlns:dc="http://purl.org/dc/elements/1.1/"
   xmlns:cc="http://creativecommons.org/ns#"
   xmlns:rdf="http://www.w3.org/1999/02/22-rdf-syntax-ns#"
   xmlns:svg="http://www.w3.org/2000/svg"
   xmlns="http://www.w3.org/2000/svg"
   xmlns:sodipodi="http://sodipodi.sourceforge.net/DTD/sodipodi-0.dtd"
   xmlns:inkscape="http://www.inkscape.org/namespaces/inkscape"
   version="1.1"
   id="svg5131"
   width="661.95197"
   height="366.23813"
   viewBox="0 0 661.95196 366.23813"
   sodipodi:docname="PA-pptx.svg"
   inkscape:version="0.92.3 (2405546, 2018-03-11)">
  <metadata
     id="metadata5137">
    <rdf:RDF>
      <cc:Work
         rdf:about="">
        <dc:format>image/svg+xml</dc:format>
        <dc:type
           rdf:resource="http://purl.org/dc/dcmitype/StillImage" />
        <dc:title />
      </cc:Work>
    </rdf:RDF>
  </metadata>
  <defs
     id="defs5135" />
  <sodipodi:namedview
     pagecolor="#ffffff"
     bordercolor="#666666"
     borderopacity="1"
     objecttolerance="10"
     gridtolerance="10"
     guidetolerance="10"
     inkscape:pageopacity="0"
     inkscape:pageshadow="2"
     inkscape:window-width="1600"
     inkscape:window-height="877"
     id="namedview5133"
     showgrid="false"
     inkscape:zoom="0.99791687"
     inkscape:cx="495.70161"
     inkscape:cy="247.12373"
     inkscape:window-x="210"
     inkscape:window-y="1072"
     inkscape:window-maximized="1"
     inkscape:current-layer="g5194"
     inkscape:snap-text-baseline="true"
     inkscape:measure-start="651.357,543.131"
     inkscape:measure-end="713.486,543.131" />
  <g
     id="g5194"
     transform="matrix(1.1015018,0,0,1.1647855,-73.947158,-181.03739)">
    <text
       xml:space="preserve"
       style="font-style:normal;font-variant:normal;font-weight:bold;font-stretch:normal;font-size:164.62187195px;line-height:125%;font-family:Arial;-inkscape-font-specification:'Arial, Bold';font-variant-ligatures:normal;font-variant-caps:normal;font-variant-numeric:normal;font-feature-settings:normal;text-align:start;letter-spacing:0px;word-spacing:0px;writing-mode:lr-tb;text-anchor:start;fill:#000000;fill-opacity:1;stroke:none;stroke-width:0.72270185px;stroke-linecap:butt;stroke-linejoin:miter;stroke-opacity:1"
       x="364.65976"
       y="252.0576"
       id="text4602"
       transform="scale(0.81251541,1.2307459)"><tspan
         sodipodi:role="line"
         id="tspan4600"
         x="364.65976"
         y="252.0576"
         style="fill:#0000ff;fill-opacity:1;stroke-width:0.72270185px">Prime</tspan></text>
    <text
       xml:space="preserve"
       style="font-style:normal;font-variant:normal;font-weight:bold;font-stretch:normal;font-size:150.45376587px;line-height:125%;font-family:Arial;-inkscape-font-specification:'Arial, Bold';font-variant-ligatures:normal;font-variant-caps:normal;font-variant-numeric:normal;font-feature-settings:normal;text-align:start;letter-spacing:0px;word-spacing:0px;writing-mode:lr-tb;text-anchor:start;fill:#0000f5;fill-opacity:1;stroke:none;stroke-width:0.66050285px;stroke-linecap:butt;stroke-linejoin:miter;stroke-opacity:1"
       x="381.44235"
       y="366.97583"
       id="text4606"
       transform="scale(0.79810849,1.2529625)"><tspan
         sodipodi:role="line"
         id="tspan4604"
         x="381.44235"
         y="366.97583"
         style="fill:#0000f5;fill-opacity:1;stroke-width:0.66050285px">Axiom</tspan></text>
    <path
       inkscape:connector-curvature="0"
       id="path5141-1"
       style="opacity:0.98999999;fill:#000005;fill-opacity:1;stroke:none;stroke-width:0.31120619;stroke-miterlimit:4;stroke-dasharray:none;stroke-opacity:0.98775509"
       d="m 292.1153,160.58744 -12.84645,0.97142 c -11.29697,0.85425 -24.26104,0.96957 -107.50414,0.96319 l -94.659476,-0.005 -0.45216,148.91869 c -0.24877,81.90584 -0.28009,149.15665 -0.0709,149.44644 0.22684,0.31447 44.343746,0.52592 109.419146,0.51953 l 109.03793,-0.01 V 312.24228 163.09269 l -1.46285,-1.25345 z m -3.13669,6.97481 v 88.40815 88.4098 l -20.03125,-0.37768 c -11.01723,-0.20735 -23.3641,-0.35715 -27.43768,-0.33481 -4.07361,0.0227 -41.16155,0.17608 -82.41766,0.34141 l -75.011226,0.30016 0.40959,-9.39266 c 1.33233,-30.63844 11.10859,-61.1163 27.111426,-84.51749 15.39464,-22.51193 37.66538,-41.37476 65.31566,-55.32024 29.35009,-14.80277 72.5569,-26.24166 102.80354,-27.21811 z m -183.21754,0.2441 c 13.88255,-0.009 32.99958,0.004 53.99943,0.0444 7.72164,0.0131 14.6617,0.0301 20.89476,0.0429 54.03454,0.11745 54.92792,0.23117 51.09147,1.1347 -75.80162,17.85203 -127.32107,60.0902 -146.190676,119.85172 l -2.27672,7.20902 -0.172,-63.99547 c -0.094,-35.19723 -0.0664,-64.08322 0.0603,-64.19174 0.0633,-0.0541 8.71089,-0.0865 22.593456,-0.0957 z m -38.305306,51.80232 c -0.0694,0.0306 -0.14273,0.11862 -0.21455,0.23584 0.0464,-0.0403 0.11074,-0.0972 0.14895,-0.13194 -0.006,-0.003 -0.0132,-0.004 -0.0195,-0.007 -0.0316,-0.0122 0.0864,-0.0681 0.0851,-0.0561 z m -0.0656,0.1039 c 0.0113,0.004 0.0224,0.009 0.0337,0.0132 0.0148,-0.0262 0.0232,-0.0428 0.032,-0.0593 v -0.0116 c -0.0182,0.0166 -0.0488,0.0425 -0.0656,0.0577 z m -0.24293,0.49808 c -0.005,0.017 -0.009,0.0341 -0.0142,0.0511 0.0101,-0.0188 0.0163,-0.032 0.0266,-0.0511 -0.004,3.7e-4 -0.009,-4e-4 -0.0124,0 z m 238.399666,29.06861 0.002,0.32656 c 0.0875,-0.004 0.18034,-0.0107 0.2642,-0.0148 v -0.29522 c -0.0836,-0.005 -0.1771,-0.011 -0.26598,-0.0164 z m -67.06753,100.0224 v 5.85495 5.85331 l -4.88147,0.003 c -2.68488,0.002 -7.83499,0.16949 -11.44566,0.37439 -7.5642,0.42922 -7.86271,0.17923 -4.92049,-4.12321 2.76151,-4.03812 9.38721,-7.01265 16.97257,-7.61969 z m -154.526236,0.16658 h 61.682476 l 61.68248,0.002 0.43618,38.51571 c 0.23965,21.18363 0.62517,44.90595 0.85644,52.71602 0.30006,10.13377 0.20505,14.31204 -0.32803,14.5945 -0.98155,0.51988 -18.14164,-0.59528 -26.69829,-1.73504 -27.69714,-3.68931 -49.71429,-12.88515 -66.36535,-27.7195 -11.81997,-10.53063 -20.001426,-22.94573 -25.113086,-38.11025 -3.21663,-9.54256 -5.5666,-22.53624 -5.95423,-32.92462 z m 130.287326,0.002 c 0.37023,0 0.67379,0.25836 0.67379,0.57561 0,0.3172 -0.3036,0.57724 -0.67379,0.57724 -0.37038,0 -0.6738,-0.26 -0.6738,-0.57724 0,-0.31725 0.30346,-0.57561 0.6738,-0.57561 z m 30.08853,0 h 2.69164 c 3.92174,0 12.29192,1.97181 17.17648,4.04734 11.10558,4.71892 17.66934,11.3471 21.3416,21.55283 0.78432,2.17974 1.61973,5.75075 1.85648,7.93469 l 0.43087,3.96983 h -21.30613 -21.30614 v -10.00647 c 0,-5.50332 -0.19859,-13.94152 -0.44152,-18.75234 z m 35.89737,0 h 8.75225 v 7.78957 c 0,4.28435 -0.10835,7.78956 -0.24114,7.78956 -0.13272,0 -1.33691,-1.41656 -2.67746,-3.14683 -2.92167,-3.77095 -7.31242,-7.62227 -11.50949,-10.09691 -1.69227,-0.99778 -3.07819,-1.93118 -3.07819,-2.0748 0,-0.14329 3.93977,-0.26059 8.75403,-0.26059 z m -41.9899,16.92989 c 0.0514,0.0505 0.31326,4.05157 0.58159,8.89128 l 0.48761,8.79893 h -3.41685 c -4.70233,0 -10.49081,-1.97735 -13.61068,-4.65098 -3.19,-2.73369 -4.40896,-4.71212 -5.5996,-9.0859 l -0.92735,-3.40741 11.19565,-0.31996 c 6.15772,-0.17523 11.23815,-0.2767 11.28963,-0.22596 z m -23.957,14.51699 1.84407,1.73009 c 1.01407,0.95204 2.71164,2.31588 3.77326,3.02974 l 1.93096,1.29798 h -3.79454 -3.79453 l 0.0212,-3.02808 z M 83.247414,389.9288 c 0.16762,0.14358 1.25708,2.58956 2.42035,5.43439 11.34536,27.74576 34.386986,47.79706 66.610056,57.96569 3.13822,0.99034 5.82327,1.90282 5.96841,2.02697 0.54811,0.46969 -9.31678,0.56891 -41.8055,0.41891 l -33.498286,-0.1553 V 422.6437 c -10e-6,-18.13654 0.13753,-32.8588 0.30497,-32.71518 z m 130.776706,2.23973 h 36.80346 36.80521 l -0.0478,1.58661 c -0.0261,0.87273 -0.60433,3.85155 -1.28554,6.62022 -5.15551,20.95375 -19.83995,38.2707 -40.4118,47.65273 -8.24066,3.75825 -21.401,7.03583 -28.25155,7.03583 h -2.72179 l -0.002,-16.30151 c -7.2e-4,-8.96537 -0.2012,-23.11621 -0.44506,-31.44687 z m 74.87825,22.79144 0.039,20.48409 0.0372,20.48409 h -22.55621 c -12.40599,0 -22.5562,-0.0399 -22.5562,-0.0907 0,-0.0506 2.65183,-1.32002 5.89216,-2.82027 15.60296,-7.22396 28.6623,-19.162 36.58358,-33.44086 z m 16.4814,52.31359 c -0.0573,0.15444 -0.0872,0.32423 -0.12235,0.49149 0.1202,-0.16009 0.20723,-0.3229 0.12235,-0.49149 z m -233.144056,2.21499 c -0.009,0.0135 -0.017,0.0264 -0.0248,0.0379 0.005,0.0574 0.005,0.11798 0.005,0.17812 0.0432,-0.0734 0.0905,-0.14365 0.13476,-0.21606 z m 0.6738,0.17647 c 0.0685,0.0599 0.13385,0.12328 0.20568,0.17977 0.0494,0.0389 -0.0558,-0.1187 -0.11348,-0.14678 -0.0291,-0.0142 -0.0624,-0.0202 -0.0922,-0.0331 z" />
  </g>
</svg>
